<?xml version="1.0" encoding="UTF-8"?>
<svg version="1.1" xmlns="http://www.w3.org/2000/svg" width="1024" height="1024">
<path d="M0 0 C337.92 0 675.84 0 1024 0 C1024 337.92 1024 675.84 1024 1024 C686.08 1024 348.16 1024 0 1024 C0 686.08 0 348.16 0 0 Z " fill="#120A19" transform="translate(0,0)"/>
<path d="M0 0 C11.48508134 9.96980824 19.29880723 22.15513307 20.44903374 37.59770775 C20.60133126 42.07532455 20.58556403 46.55238253 20.57202148 51.03198242 C20.57773437 52.74834129 20.58470215 54.46469636 20.59281921 56.18104553 C20.61067993 60.81827667 20.60959372 65.4553178 20.60387683 70.09257293 C20.60076978 73.98538561 20.60689532 77.87816259 20.61291558 81.77097017 C20.62694064 90.97584338 20.62542084 100.18062379 20.61401367 109.38549805 C20.60257888 118.81988826 20.61653432 128.25399264 20.64341015 137.68834513 C20.66572978 145.83411769 20.67216699 153.97980165 20.66633373 162.12560254 C20.6629961 166.96981822 20.66516049 171.81385158 20.68258476 176.658041 C20.81577307 217.65863666 17.57751704 254.93416908 -12.39453125 285.76171875 C-29.93213832 303.20425589 -51.84369726 313.54436498 -75.76953125 319.07421875 C-76.41132324 319.22536133 -77.05311523 319.37650391 -77.71435547 319.53222656 C-94.244889 323.07248586 -110.95950913 323.09913716 -127.77734375 323.01953125 C-130.12816242 323.01579148 -132.47898267 323.01294908 -134.82980347 323.01095581 C-140.95510316 323.00339514 -147.08030487 322.98381351 -153.20556641 322.96154785 C-160.58810909 322.9372853 -167.97068491 322.92827235 -175.35325623 322.91664124 C-186.51291562 322.89738327 -197.67236089 322.85900816 -208.83203125 322.82421875 C-208.83203125 301.04421875 -208.83203125 279.26421875 -208.83203125 256.82421875 C-202.1134375 256.77523438 -195.39484375 256.72625 -188.47265625 256.67578125 C-184.19790227 256.64036565 -179.92316757 256.60438891 -175.6484375 256.56640625 C-168.87421535 256.50626759 -162.10001997 256.44812542 -155.32568359 256.40234375 C-149.85964573 256.36527311 -144.39375754 256.31885598 -138.92784882 256.26615524 C-136.85006098 256.24772638 -134.77224121 256.23257673 -132.6944046 256.22087479 C-112.86156943 256.10900508 -112.86156943 256.10900508 -93.76953125 251.13671875 C-92.75511963 250.74480347 -92.75511963 250.74480347 -91.72021484 250.3449707 C-76.1680364 244.10157064 -62.56197167 232.86376918 -55.76623535 217.33087158 C-53.57097852 211.75178625 -53.264548 206.81478594 -53.31445312 200.87011719 C-53.30744385 199.82490906 -53.30043457 198.77970093 -53.29321289 197.70281982 C-53.27573782 194.27946698 -53.28721533 190.85695364 -53.30078125 187.43359375 C-53.29808415 185.04087161 -53.29419992 182.64815054 -53.28918457 180.25543213 C-53.28330442 175.25579327 -53.29180799 170.25644132 -53.31054688 165.25683594 C-53.33338462 158.85207282 -53.32017281 152.44797845 -53.29625702 146.04323959 C-53.28180137 141.10869304 -53.28640321 136.17430506 -53.29676819 131.23975372 C-53.29943353 128.87787039 -53.29617252 126.51597258 -53.28684998 124.15410614 C-53.27668322 120.85592979 -53.29218642 117.55883782 -53.31445312 114.26074219 C-53.30230774 112.8018457 -53.30230774 112.8018457 -53.28991699 111.31347656 C-53.36240664 105.51313957 -54.07575612 102.30604525 -57.83203125 97.82421875 C-60.18418489 98.20620575 -61.5057614 98.4846667 -63.18139648 100.22851562 C-63.58044189 100.82728516 -63.9794873 101.42605469 -64.390625 102.04296875 C-64.85210938 102.71908203 -65.31359375 103.39519531 -65.7890625 104.09179688 C-66.27761719 104.82849609 -66.76617188 105.56519531 -67.26953125 106.32421875 C-68.33813891 107.88877675 -69.40984887 109.45121958 -70.484375 111.01171875 C-71.03593262 111.81351562 -71.58749023 112.6153125 -72.15576172 113.44140625 C-74.76917934 117.15637216 -77.54463586 120.738988 -80.33203125 124.32421875 C-84.70956083 129.97711217 -88.92767679 135.71120409 -93.01953125 141.57421875 C-97.23826232 147.61756125 -101.59147135 153.49429997 -106.1328125 159.30078125 C-108.22940224 162.00559668 -110.24746328 164.7600308 -112.25 167.53515625 C-131.37640194 194.0345359 -131.37640194 194.0345359 -145.83203125 196.82421875 C-156.44331778 197.60021419 -165.85910061 195.50850136 -174.3125 188.87890625 C-182.65289357 181.63626494 -188.77976536 173.07863416 -194.89453125 163.94921875 C-199.39615687 157.2939566 -204.02981376 150.76572863 -208.83203125 144.32421875 C-213.52682951 138.02527234 -218.05774977 131.64548905 -222.45703125 125.13671875 C-226.67316782 118.90307607 -230.9996205 112.77935546 -235.51953125 106.76171875 C-236.02500488 106.08858643 -236.53047852 105.4154541 -237.05126953 104.72192383 C-238.88569977 102.3013985 -240.68180371 99.97444629 -242.83203125 97.82421875 C-247.00521459 97.35351323 -247.00521459 97.35351323 -250.64453125 99.13671875 C-253.51085462 103.20991512 -252.9847326 107.74197426 -252.99024963 112.49906921 C-252.99518761 113.39593046 -253.00012559 114.2927917 -253.0052132 115.21683055 C-253.02061987 118.23398864 -253.02895741 121.2511254 -253.03735352 124.26831055 C-253.04692955 126.42636301 -253.05693946 128.58441358 -253.06735229 130.74246216 C-253.0944372 136.61191999 -253.11542735 142.48138589 -253.13535428 148.3508718 C-253.15719173 154.48082187 -253.18459137 160.61074695 -253.21141052 166.74067688 C-253.26136775 178.353459 -253.30629533 189.96625496 -253.34943289 201.57906419 C-253.39877938 214.79776213 -253.4537071 228.01643502 -253.50911248 241.23510873 C-253.62297904 268.43145653 -253.72907105 295.62782732 -253.83203125 322.82421875 C-277.59203125 322.82421875 -301.35203125 322.82421875 -325.83203125 322.82421875 C-325.92027971 286.22860159 -325.99411068 249.6330851 -326.03629257 213.03739192 C-326.04129515 208.71299742 -326.04647247 204.38860315 -326.05175781 200.06420898 C-326.05280705 199.20333135 -326.0538563 198.34245372 -326.05493733 197.45548888 C-326.07232351 183.53210477 -326.10385131 169.608787 -326.14064243 155.68544219 C-326.17810168 141.38959667 -326.20027762 127.0937858 -326.20838523 112.79789323 C-326.21386269 103.9826972 -326.2311375 95.16768869 -326.26369712 86.35255041 C-326.28490659 80.30056862 -326.2912168 74.24868321 -326.28603676 68.19666699 C-326.28348493 64.70944417 -326.2872849 61.22254811 -326.30885315 57.73538399 C-326.32886229 53.94302717 -326.32392962 50.15146162 -326.31304932 46.35908508 C-326.32470068 45.27246796 -326.33635205 44.18585085 -326.34835649 43.06630594 C-326.25060874 30.39297635 -322.26954075 19.99153943 -314.83203125 9.82421875 C-314.12240234 8.83808594 -314.12240234 8.83808594 -313.3984375 7.83203125 C-305.83827128 -1.80557442 -293.79489623 -8.11571748 -281.83203125 -10.17578125 C-264.93018187 -11.43914212 -251.47619791 -10.78488687 -238.19140625 0.6171875 C-229.77367441 8.4913903 -223.48135671 17.45716598 -217.09277344 26.96875 C-215.41363928 29.43997765 -213.66349344 31.85416854 -211.89453125 34.26171875 C-208.58782069 38.76475956 -205.35775353 43.31686006 -202.14453125 47.88671875 C-197.91600916 53.89708356 -193.64432831 59.87368739 -189.33203125 65.82421875 C-185.01973101 71.7747545 -180.74833709 77.75155028 -176.51953125 83.76171875 C-172.58199071 89.35660009 -168.63097581 94.93861588 -164.5703125 100.4453125 C-163.41722513 102.02335791 -162.28907659 103.6199504 -161.1875 105.234375 C-158.34992615 109.49432433 -158.34992615 109.49432433 -153.95703125 111.82421875 C-153.25578125 111.82421875 -152.55453125 111.82421875 -151.83203125 111.82421875 C-147.77329891 107.19415884 -143.94144468 102.45316004 -140.26953125 97.51171875 C-139.75704834 96.82513184 -139.24456543 96.13854492 -138.71655273 95.43115234 C-133.22290554 88.04690464 -127.84348402 80.58057981 -122.47314453 73.10644531 C-119.76563609 69.34122828 -117.04845761 65.58300427 -114.33203125 61.82421875 C-111.09066321 57.33815371 -107.85061163 52.85117034 -104.6171875 48.359375 C-79.89211897 14.02837186 -79.89211897 14.02837186 -72.83203125 5.82421875 C-71.84783203 4.66212891 -71.84783203 4.66212891 -70.84375 3.4765625 C-51.84882583 -17.32409487 -21.55282111 -16.55851221 0 0 Z " fill="#FDFDFD" transform="translate(665.83203125,356.17578125)"/>
<path d="M0 0 C0.33 0 0.66 0 1 0 C1 95.04 1 190.08 1 288 C0.34 288 -0.32 288 -1 288 C-1.88646336 284.95617758 -2.12083704 282.25642274 -2.11022377 279.09088612 C-2.10934812 278.09773767 -2.10847247 277.10458923 -2.10757029 276.08134538 C-2.10144862 274.9925405 -2.09532695 273.90373562 -2.08901978 272.78193665 C-2.08649621 271.62357919 -2.08397265 270.46522174 -2.08137262 269.27176255 C-2.07332415 266.05605892 -2.06071712 262.84041015 -2.04618168 259.62473047 C-2.03160113 256.15713903 -2.02284899 252.68953223 -2.01335144 249.22192383 C-1.99379535 242.42953537 -1.96874883 235.6371777 -1.9417484 228.84481517 C-1.91991506 223.32718939 -1.90006272 217.80955979 -1.88163376 212.29192162 C-1.87901163 211.50732507 -1.8763895 210.72272852 -1.87368792 209.91435632 C-1.86837045 208.3206172 -1.86305767 206.72687807 -1.85774951 205.13313892 C-1.80772681 190.18390636 -1.7514972 175.23470205 -1.69314377 160.28550001 C-1.64316793 147.44579972 -1.59846554 134.60608988 -1.55761719 121.76635742 C-1.51021295 106.86680089 -1.45959635 91.96726109 -1.40379179 77.06773347 C-1.39785638 75.48069936 -1.39192503 73.89366523 -1.38599777 72.30663109 C-1.38307939 71.52570855 -1.380161 70.744786 -1.37715418 69.94019914 C-1.35676489 64.42477636 -1.3386887 58.90934874 -1.32149124 53.39391518 C-1.30049001 46.67905794 -1.27596294 39.96422481 -1.24684478 33.24939767 C-1.23206526 29.82047219 -1.21891243 26.39156035 -1.21003914 22.96261406 C-1.19959412 19.25407753 -1.18308872 15.54561808 -1.16494751 11.83711243 C-1.16328728 10.74161538 -1.16162706 9.64611833 -1.15991652 8.5174244 C-1.15382538 7.5320992 -1.14773423 6.546774 -1.14145851 5.53159046 C-1.1382584 4.67445165 -1.13505828 3.81731283 -1.13176119 2.93420011 C-1 1 -1 1 0 0 Z " fill="#020008" transform="translate(339,390)"/>
<path d="M0 0 C0.33 0 0.66 0 1 0 C2.08661729 22.17586306 2.01225426 44.31692892 1.65937424 66.5085144 C1.62505707 68.68388208 1.59244205 70.85927028 1.56008911 73.03466797 C1.49761565 77.17299105 1.4256242 81.31108633 1.3515625 85.44921875 C1.33166763 86.69696579 1.31177277 87.94471283 1.29127502 89.23027039 C1.17255965 95.23001028 0.89981546 101.06480254 0 107 C-0.33 107 -0.66 107 -1 107 C-1.02333058 93.19659113 -1.04091354 79.3931853 -1.05181217 65.58976078 C-1.05704166 59.18100872 -1.0641405 52.77226985 -1.07543945 46.36352539 C-1.08626599 40.18440559 -1.09227634 34.00529852 -1.09487724 27.82616997 C-1.09673192 25.4629439 -1.10035332 23.09971856 -1.10573006 20.73649788 C-1.11293738 17.43898104 -1.11399107 14.14151753 -1.11352539 10.84399414 C-1.11712067 9.85641113 -1.12071594 8.86882812 -1.12442017 7.85131836 C-1.1230455 6.95804337 -1.12167084 6.06476837 -1.12025452 5.14442444 C-1.12117631 4.36366578 -1.1220981 3.58290712 -1.12304783 2.77848911 C-1 1 -1 1 0 0 Z " fill="#030008" transform="translate(413,461)"/>
<path d="M0 0 C0.33 0 0.66 0 1 0 C1.864961 5.95316375 2.13839567 11.7100375 2.11352539 17.72070312 C2.11367142 18.65821411 2.11381744 19.5957251 2.1139679 20.56164551 C2.11327584 23.63487123 2.10551678 26.70803498 2.09765625 29.78125 C2.09578956 31.92215949 2.09436684 34.06306942 2.09336853 36.20397949 C2.08956316 41.81975498 2.07974987 47.43550432 2.06866455 53.05126953 C2.05840776 58.78938442 2.05386178 64.52750357 2.04882812 70.265625 C2.03812574 81.51042811 2.02107323 92.75521188 2 104 C1.34 104 0.68 104 0 104 C0 102.02 0 100.04 0 98 C-0.33 98 -0.66 98 -1 98 C-1 92.06 -1 86.12 -1 80 C-0.67 80 -0.34 80 0 80 C0 53.6 0 27.2 0 0 Z " fill="#050108" transform="translate(611,464)"/>
<path d="M0 0 C23.1 0 46.2 0 70 0 C70 0.66 70 1.32 70 2 C66.91175735 3.02941422 64.76294418 3.12907717 61.52734375 3.1328125 C60.46322266 3.13410156 59.39910156 3.13539063 58.30273438 3.13671875 C56.63694336 3.13091797 56.63694336 3.13091797 54.9375 3.125 C53.82310547 3.12886719 52.70871094 3.13273438 51.56054688 3.13671875 C49.96629883 3.13478516 49.96629883 3.13478516 48.33984375 3.1328125 C47.36394287 3.13168457 46.38804199 3.13055664 45.38256836 3.12939453 C43 3 43 3 41 2 C38.55071345 1.90144883 36.13618624 1.86099417 33.6875 1.875 C32.37136719 1.87242187 31.05523437 1.86984375 29.69921875 1.8671875 C26.19429988 1.88502808 26.19429988 1.88502808 23.60009766 2.51586914 C20.85363916 3.02725198 18.48533582 3.02554399 15.69921875 2.87890625 C14.72275391 2.83056641 13.74628906 2.78222656 12.74023438 2.73242188 C11.22913086 2.64831055 11.22913086 2.64831055 9.6875 2.5625 C8.66076172 2.51029297 7.63402344 2.45808594 6.57617188 2.40429688 C4.05043913 2.27507334 1.52514739 2.14012709 -1 2 C-0.67 1.34 -0.34 0.68 0 0 Z " fill="#06020A" transform="translate(341,679)"/>
<path d="M0 0 C0.66 0.33 1.32 0.66 2 1 C1.34 2.65 0.68 4.3 0 6 C-0.66 6 -1.32 6 -2 6 C-1.938125 6.928125 -1.87625 7.85625 -1.8125 8.8125 C-2 12 -2 12 -3.375 13.625 C-3.91125 14.07875 -4.4475 14.5325 -5 15 C-5.268125 15.70125 -5.53625 16.4025 -5.8125 17.125 C-7 19 -7 19 -10.125 19.75 C-11.548125 19.87375 -11.548125 19.87375 -13 20 C-11.47757293 15.36312212 -8.94259205 12.0656772 -5.9375 8.3125 C-2.67441696 4.35070369 -2.67441696 4.35070369 0 0 Z " fill="#EAEAEB" transform="translate(557,410)"/>
<path d="M0 0 C5.53846154 0.49230769 5.53846154 0.49230769 7.875 3.0625 C8.431875 4.0215625 8.431875 4.0215625 9 5 C8.01 5.66 7.02 6.32 6 7 C8.64 7 11.28 7 14 7 C13.01 8.32 12.02 9.64 11 11 C8.15301606 10.91626518 6.448839 10.40889548 4.33203125 8.48046875 C0 3.59278504 0 3.59278504 0 0 Z " fill="#17141C" transform="translate(503,458)"/>
<path d="M0 0 C2 1 2 1 3.3125 2.75 C4 5 4 5 2.8125 7.625 C1 10 1 10 -2 12 C-3.1875 10.4375 -3.1875 10.4375 -4 8 C-1.78947368 1.78947368 -1.78947368 1.78947368 0 0 Z " fill="#F1F0F1" transform="translate(659,625)"/>
<path d="M0 0 C0.66 0.33 1.32 0.66 2 1 C1.67 2.98 1.34 4.96 1 7 C0.67 6.34 0.34 5.68 0 5 C-0.99 6.485 -0.99 6.485 -2 8 C-1.67 8.33 -1.34 8.66 -1 9 C-0.55793979 10.29766061 -0.16915264 11.61381606 0.1875 12.9375 C0.38730469 13.64777344 0.58710937 14.35804688 0.79296875 15.08984375 C0.86128906 15.72019531 0.92960938 16.35054688 1 17 C0.34 17.66 -0.32 18.32 -1 19 C-5.23632385 10.14223195 -5.23632385 10.14223195 -4.25 5.375 C-3.8375 4.59125 -3.425 3.8075 -3 3 C-2.34 3 -1.68 3 -1 3 C-0.67 2.01 -0.34 1.02 0 0 Z " fill="#17121E" transform="translate(686,368)"/>
<path d="M0 0 C0 0.66 0 1.32 0 2 C-3.46153846 5 -3.46153846 5 -6 5 C-6.28875 5.598125 -6.5775 6.19625 -6.875 6.8125 C-9.44827586 11.81609195 -9.44827586 11.81609195 -13 13 C-13.99 14.485 -13.99 14.485 -15 16 C-15.66 16 -16.32 16 -17 16 C-15.42529581 12.17444746 -12.99021491 9.75542436 -10.0625 6.875 C-9.18722656 6.00617188 -8.31195312 5.13734375 -7.41015625 4.2421875 C-2.85017422 0 -2.85017422 0 0 0 Z " fill="#ECEAED" transform="translate(607,351)"/>
<path d="M0 0 C-1.65 2.31 -3.3 4.62 -5 7 C-5.99 6.67 -6.98 6.34 -8 6 C-8 3.69 -8 1.38 -8 -1 C-4.59745511 -2.2151946 -3.06748874 -1.86240388 0 0 Z " fill="#F2F2F3" transform="translate(553,524)"/>
<path d="M0 0 C1.39195915 4.17587745 -0.17676781 6.13474776 -2 10 C-2.66 10 -3.32 10 -4 10 C-4.33 8.35 -4.66 6.7 -5 5 C-4.01 4.67 -3.02 4.34 -2 4 C-0.79117904 1.99983534 -0.79117904 1.99983534 0 0 Z M-8 6 C-7.01 6.33 -6.02 6.66 -5 7 C-5.33 7.99 -5.66 8.98 -6 10 C-6 9.34 -6 8.68 -6 8 C-6.66 8 -7.32 8 -8 8 C-8 7.34 -8 6.68 -8 6 Z " fill="#0C0710" transform="translate(345,372)"/>
<path d="M0 0 C-0.33 1.65 -0.66 3.3 -1 5 C-1.99 5 -2.98 5 -4 5 C-4 4.01 -4 3.02 -4 2 C-4.66 2 -5.32 2 -6 2 C-6 2.66 -6 3.32 -6 4 C-7.65 3.67 -9.3 3.34 -11 3 C-10 1 -10 1 -6.625 -0.1875 C-3 -1 -3 -1 0 0 Z " fill="#09050C" transform="translate(599,674)"/>
<path d="M0 0 C0.598125 0.33 1.19625 0.66 1.8125 1 C4.05386471 2.20787988 4.05386471 2.20787988 7 2 C5.35 4.31 3.7 6.62 2 9 C1.67 7.68 1.34 6.36 1 5 C-0.9837767 3.71563266 -0.9837767 3.71563266 -3 3 C-2.67 2.34 -2.34 1.68 -2 1 C-1.34 1 -0.68 1 0 1 C0 0.67 0 0.34 0 0 Z " fill="#19121D" transform="translate(557,400)"/>
<path d="M0 0 C0.66 0.66 1.32 1.32 2 2 C2.66 1.67 3.32 1.34 4 1 C4 1.99 4 2.98 4 4 C4.99 4 5.98 4 7 4 C6.34 5.65 5.68 7.3 5 9 C0.125 4.375 0.125 4.375 -1 1 C-0.67 0.67 -0.34 0.34 0 0 Z " fill="#1B1520" transform="translate(446,377)"/>
<path d="M0 0 C0.66 0.99 1.32 1.98 2 3 C-1.44615385 8.78461538 -1.44615385 8.78461538 -4.25 9.875 C-4.8275 9.91625 -5.405 9.9575 -6 10 C-4.34832443 6.4213696 -2.21713508 3.25179812 0 0 Z " fill="#1C1A21" transform="translate(550,527)"/>
<path d="M0 0 C0.66 0.33 1.32 0.66 2 1 C1.67 1.99 1.34 2.98 1 4 C1 4.99 1 5.98 1 7 C-1.66666667 7 -4.33333333 7 -7 7 C-4.69 4.69 -2.38 2.38 0 0 Z " fill="#18151F" transform="translate(542,538)"/>
<path d="M0 0 C0.66 1.32 1.32 2.64 2 4 C-2.625 7 -2.625 7 -6 7 C-4.60667426 3.63279613 -3.0210714 2.0140476 0 0 Z " fill="#F3F4F5" transform="translate(550,423)"/>
<path d="M0 0 C0.66 0 1.32 0 2 0 C2.99 1.98 3.98 3.96 5 6 C1.25 7.125 1.25 7.125 -1 6 C-1.042721 4.33388095 -1.04063832 2.66617115 -1 1 C-0.67 0.67 -0.34 0.34 0 0 Z " fill="#1C161F" transform="translate(437,473)"/>
<path d="M0 0 C0.33 0.66 0.66 1.32 1 2 C3.64 2 6.28 2 9 2 C8.01 3.32 7.02 4.64 6 6 C4.35 5.67 2.7 5.34 1 5 C0.67 3.35 0.34 1.7 0 0 Z " fill="#1E1E1F" transform="translate(508,463)"/>
<path d="M0 0 C0.33 0.66 0.66 1.32 1 2 C1.66 2.33 2.32 2.66 3 3 C1.68 4.32 0.36 5.64 -1 7 C-1.99 6.67 -2.98 6.34 -4 6 C-3.67 4.35 -3.34 2.7 -3 1 C-2.01 0.67 -1.02 0.34 0 0 Z " fill="#191320" transform="translate(543,424)"/>
<path d="M0 0 C1.32 0.66 2.64 1.32 4 2 C4 2.99 4 3.98 4 5 C2.68 5.33 1.36 5.66 0 6 C0 5.34 0 4.68 0 4 C-0.99 4.33 -1.98 4.66 -3 5 C-2 2 -2 2 0 0 Z " fill="#1A121C" transform="translate(483,538)"/>
<path d="M0 0 C4.875 4.625 4.875 4.625 6 8 C4.1875 8.625 4.1875 8.625 2 9 C1.01 8.34 0.02 7.68 -1 7 C-0.34 6.01 0.32 5.02 1 4 C0.69159401 1.84725052 0.69159401 1.84725052 0 0 Z " fill="#1A1521" transform="translate(470,519)"/>
<path d="M0 0 C0.66 0.33 1.32 0.66 2 1 C2 1.66 2 2.32 2 3 C2.66 3 3.32 3 4 3 C4 4.65 4 6.3 4 8 C3.01 8.495 3.01 8.495 2 9 C0.02 5.535 0.02 5.535 -2 2 C-1.34 1.34 -0.68 0.68 0 0 Z " fill="#F1F0F3" transform="translate(475,520)"/>
<path d="M0 0 C1.32 0.66 2.64 1.32 4 2 C3.19152271 3.16945792 2.37810888 4.33550461 1.5625 5.5 C1.11003906 6.1496875 0.65757812 6.799375 0.19140625 7.46875 C-0.20175781 7.9740625 -0.59492187 8.479375 -1 9 C-1.33 9 -1.66 9 -2 9 C-2.25 3.375 -2.25 3.375 0 0 Z " fill="#1A171D" transform="translate(566,392)"/>
<path d="M0 0 C1.65 0.33 3.3 0.66 5 1 C4.01 1.495 4.01 1.495 3 2 C2.34786708 4.02463255 2.34786708 4.02463255 2 6 C0.68 5.34 -0.64 4.68 -2 4 C-1.34 2.68 -0.68 1.36 0 0 Z " fill="#F7F7F7" transform="translate(419,353)"/>
<path d="M0 0 C2 2 2 2 2 5 C1.67 5.66 1.34 6.32 1 7 C1.66 7.33 2.32 7.66 3 8 C2.01 8.33 1.02 8.66 0 9 C-0.66 8.34 -1.32 7.68 -2 7 C-1.34 7 -0.68 7 0 7 C0 6.34 0 5.68 0 5 C-0.99 4.67 -1.98 4.34 -3 4 C-2.01 2.68 -1.02 1.36 0 0 Z " fill="#241C27" transform="translate(603,455)"/>
<path d="M0 0 C2.125 0.9375 2.125 0.9375 4 2 C3.34 3.65 2.68 5.3 2 7 C0.62437146 5.71034824 -0.70766393 4.37310707 -2 3 C-2 2.34 -2 1.68 -2 1 C-1.34 0.67 -0.68 0.34 0 0 Z " fill="#1C1721" transform="translate(443,371)"/>
<path d="M0 0 C1.32 0.66 2.64 1.32 4 2 C2.02 4.97 2.02 4.97 0 8 C-0.99 7.34 -1.98 6.68 -3 6 C-2.34 5.67 -1.68 5.34 -1 5 C-0.34444881 2.47266765 -0.34444881 2.47266765 0 0 Z " fill="#1B1521" transform="translate(349,362)"/>
<path d="M0 0 C1.32 0 2.64 0 4 0 C4 0.66 4 1.32 4 2 C4.66 2 5.32 2 6 2 C5.67 2.99 5.34 3.98 5 5 C4.01 4.34 3.02 3.68 2 3 C2.33 4.32 2.66 5.64 3 7 C2.01 6.67 1.02 6.34 0 6 C-0.38218767 4.34385343 -0.71395102 2.67542976 -1 1 C-0.67 0.67 -0.34 0.34 0 0 Z " fill="#17131D" transform="translate(633,657)"/>
<path d="M0 0 C0.99 0.33 1.98 0.66 3 1 C3.73046875 2.84765625 3.73046875 2.84765625 4.1875 5.0625 C4.34605469 5.79597656 4.50460937 6.52945313 4.66796875 7.28515625 C4.83232422 8.13400391 4.83232422 8.13400391 5 9 C4.01 9 3.02 9 2 9 C0.50178941 5.62902617 0 3.79557881 0 0 Z " fill="#1A121E" transform="translate(682,587)"/>
<path d="M0 0 C2.52588702 2.36292656 3.88820837 3.66462511 5 7 C3.35 7 1.7 7 0 7 C-1.125 2.25 -1.125 2.25 0 0 Z " fill="#1F1C25" transform="translate(454,496)"/>
<path d="M0 0 C0.66 1.32 1.32 2.64 2 4 C-0.97 6.475 -0.97 6.475 -4 9 C-4 5.00095031 -2.27413033 3.19799578 0 0 Z " fill="#E7E6E7" transform="translate(533,443)"/>
<path d="M0 0 C0.66 0.33 1.32 0.66 2 1 C1.34 2.98 0.68 4.96 0 7 C-1.32 6.34 -2.64 5.68 -4 5 C-2.25 1.125 -2.25 1.125 0 0 Z " fill="#EDECED" transform="translate(367,352)"/>
<path d="M0 0 C0.33 0.66 0.66 1.32 1 2 C1.99 2.33 2.98 2.66 4 3 C3.01 4.32 2.02 5.64 1 7 C-0.32 6.34 -1.64 5.68 -3 5 C-2.625 3.0625 -2.625 3.0625 -2 1 C-1.34 0.67 -0.68 0.34 0 0 Z " fill="#1F1821" transform="translate(419,344)"/>
<path d="M0 0 C0.33 1.32 0.66 2.64 1 4 C-1.97 4 -4.94 4 -8 4 C-5.53721199 1.53721199 -3.29323018 1.00228745 0 0 Z " fill="#1B191F" transform="translate(614,667)"/>
<path d="M0 0 C2.31 0.66 4.62 1.32 7 2 C6.01 2.495 6.01 2.495 5 3 C5.33 4.65 5.66 6.3 6 8 C3.33264727 5.51047079 1.44253657 3.36591866 0 0 Z " fill="#1C1622" transform="translate(479,426)"/>
<path d="M0 0 C-0.66 1.65 -1.32 3.3 -2 5 C-3.9375 4.6875 -3.9375 4.6875 -6 4 C-6.33 3.01 -6.66 2.02 -7 1 C-2.25 0 -2.25 0 0 0 Z " fill="#F0EFF0" transform="translate(626,344)"/>
<path d="M0 0 C1.32 0.66 2.64 1.32 4 2 C3.01 2.66 2.02 3.32 1 4 C1.99 4.33 2.98 4.66 4 5 C2.68 5.33 1.36 5.66 0 6 C-0.66 4.68 -1.32 3.36 -2 2 C-1.34 1.34 -0.68 0.68 0 0 Z " fill="#1B121D" transform="translate(668,353)"/>
<path d="M0 0 C0.99 0.33 1.98 0.66 3 1 C3 1.66 3 2.32 3 3 C-2.75 6 -2.75 6 -5 6 C-4.67 5.01 -4.34 4.02 -4 3 C-3.34 3 -2.68 3 -2 3 C-1.67 2.34 -1.34 1.68 -1 1 C-0.67 0.67 -0.34 0.34 0 0 Z " fill="#0A060F" transform="translate(370,347)"/>
<path d="M0 0 C-2.35968744 2.09749995 -3.54616994 2.96905704 -6.75 3.1875 C-7.86375 3.0946875 -7.86375 3.0946875 -9 3 C-9 2.34 -9 1.68 -9 1 C-3.375 -1.125 -3.375 -1.125 0 0 Z " fill="#08060A" transform="translate(530,551)"/>
<path d="M0 0 C0.66 1.32 1.32 2.64 2 4 C0.02 4.99 0.02 4.99 -2 6 C-2 6.99 -2 7.98 -2 9 C-2.99 8.34 -3.98 7.68 -5 7 C-3.35 4.69 -1.7 2.38 0 0 Z " fill="#252028" transform="translate(562,511)"/>
<path d="M0 0 C1.65 1.65 3.3 3.3 5 5 C4.34 5.66 3.68 6.32 3 7 C0.875 6.625 0.875 6.625 -1 6 C-1 4 -1 4 0 3 C0 2.01 0 1.02 0 0 Z " fill="#EFEBEF" transform="translate(443,377)"/>
<path d="M0 0 C-1.36983503 3.16115776 -1.9890638 3.9927092 -5 6 C-5.66 4.68 -6.32 3.36 -7 2 C-2.25 0 -2.25 0 0 0 Z " fill="#201B21" transform="translate(599,355)"/>
<path d="M0 0 C2.125 0.9375 2.125 0.9375 4 2 C3.01 2.495 3.01 2.495 2 3 C2 3.66 2 4.32 2 5 C-0.475 4.01 -0.475 4.01 -3 3 C-2 1 -2 1 0 0 Z " fill="#F2F3F2" transform="translate(660,353)"/>
<path d="M0 0 C2.475 0.99 2.475 0.99 5 2 C3.35 3.32 1.7 4.64 0 6 C-0.99 5.34 -1.98 4.68 -3 4 C-2.34 4 -1.68 4 -1 4 C-0.67 2.68 -0.34 1.36 0 0 Z " fill="#1A1420" transform="translate(604,347)"/>
<path d="M0 0 C2.0625 1.75 2.0625 1.75 4 4 C3.75 6.25 3.75 6.25 3 8 C2.01 7.67 1.02 7.34 0 7 C-1.17755913 4.05610218 -1.03348696 3.10046087 0 0 Z " fill="#231F28" transform="translate(459,503)"/>
<path d="M0 0 C3.465 1.98 3.465 1.98 7 4 C7.33 3.34 7.66 2.68 8 2 C7.67 3.32 7.34 4.64 7 6 C3.75728494 5.4409112 2.06942576 4.5867822 0 2 C0 1.34 0 0.68 0 0 Z " fill="#08070D" transform="translate(431,359)"/>
<path d="M0 0 C0.66 1.32 1.32 2.64 2 4 C0.35 5.32 -1.3 6.64 -3 8 C-1.125 2.25 -1.125 2.25 0 0 Z " fill="#0B060F" transform="translate(592,358)"/>
</svg>
